<svg width="22" height="18" viewBox="0 0 22 18" fill="none" xmlns="http://www.w3.org/2000/svg">
<path d="M21.0834 0.74994C20.2056 1.36913 19.2337 1.84271 18.2051 2.15244C17.653 1.51766 16.9193 1.06774 16.1032 0.863539C15.2871 0.659337 14.428 0.710703 13.642 1.01069C12.856 1.31068 12.1812 1.84481 11.7086 2.54085C11.2361 3.23689 10.9888 4.06125 11.0001 4.90244V5.81911C9.38916 5.86088 7.79292 5.5036 6.35351 4.7791C4.9141 4.0546 3.67621 2.98536 2.75008 1.66661C2.75008 1.66661 -0.916585 9.91661 7.33342 13.5833C5.44557 14.8647 3.19664 15.5073 0.916748 15.4166C9.16675 19.9999 19.2501 15.4166 19.2501 4.87494C19.2492 4.61961 19.2247 4.3649 19.1768 4.11411C20.1123 3.19148 20.7725 2.02659 21.0834 0.74994Z" fill="#2A2A2A"/>
</svg>
