<svg width="24" height="22" viewBox="0 0 24 22" fill="none" xmlns="http://www.w3.org/2000/svg">
<path d="M16 7.33337C17.5913 7.33337 19.1174 7.91284 20.2426 8.94429C21.3679 9.97574 22 11.3747 22 12.8334V19.25H18V12.8334C18 12.3471 17.7893 11.8808 17.4142 11.537C17.0391 11.1932 16.5304 11 16 11C15.4696 11 14.9609 11.1932 14.5858 11.537C14.2107 11.8808 14 12.3471 14 12.8334V19.25H10V12.8334C10 11.3747 10.6321 9.97574 11.7574 8.94429C12.8826 7.91284 14.4087 7.33337 16 7.33337Z" fill="#2A2A2A"/>
<path d="M6 8.25H2V19.25H6V8.25Z" fill="#2A2A2A"/>
<path d="M4 5.50004C5.10457 5.50004 6 4.67923 6 3.66671C6 2.65419 5.10457 1.83337 4 1.83337C2.89543 1.83337 2 2.65419 2 3.66671C2 4.67923 2.89543 5.50004 4 5.50004Z" fill="#2A2A2A"/>
</svg>
