<svg width="142" height="26" viewBox="0 0 142 26" fill="none" xmlns="http://www.w3.org/2000/svg">
<path d="M12.5311 1.26779C12.6921 0.832402 13.3079 0.832402 13.4689 1.26779L16.0707 8.30156C16.1407 8.49094 16.3178 8.6196 16.5196 8.6277L24.0131 8.92855C24.4769 8.94717 24.6672 9.53284 24.3029 9.82054L18.4174 14.4685C18.2589 14.5937 18.1913 14.8018 18.2459 14.9962L20.2754 22.2159C20.401 22.6628 19.9028 23.0248 19.5166 22.7672L13.2774 18.606C13.1094 18.494 12.8906 18.494 12.7226 18.606L6.48336 22.7672C6.09716 23.0248 5.59897 22.6628 5.72459 22.2159L7.75408 14.9962C7.80872 14.8018 7.74108 14.5937 7.58262 14.4685L1.69709 9.82054C1.33278 9.53284 1.52307 8.94717 1.98692 8.92855L9.48042 8.6277C9.68217 8.6196 9.85925 8.49094 9.9293 8.30156L12.5311 1.26779Z" fill="#FFB400"/>
<path d="M41.5311 1.26779C41.6921 0.832402 42.3079 0.832402 42.4689 1.26779L45.0707 8.30156C45.1407 8.49094 45.3178 8.6196 45.5196 8.6277L53.0131 8.92855C53.4769 8.94717 53.6672 9.53284 53.3029 9.82054L47.4174 14.4685C47.2589 14.5937 47.1913 14.8018 47.2459 14.9962L49.2754 22.2159C49.401 22.6628 48.9028 23.0248 48.5166 22.7672L42.2774 18.606C42.1094 18.494 41.8906 18.494 41.7226 18.606L35.4834 22.7672C35.0972 23.0248 34.599 22.6628 34.7246 22.2159L36.7541 14.9962C36.8087 14.8018 36.7411 14.5937 36.5826 14.4685L30.6971 9.82054C30.3328 9.53284 30.5231 8.94717 30.9869 8.92855L38.4804 8.6277C38.6822 8.6196 38.8593 8.49094 38.9293 8.30156L41.5311 1.26779Z" fill="#FFB400"/>
<path d="M70.5311 1.26779C70.6921 0.832402 71.3079 0.832402 71.4689 1.26779L74.0707 8.30156C74.1407 8.49094 74.3178 8.6196 74.5196 8.6277L82.0131 8.92855C82.4769 8.94717 82.6672 9.53284 82.3029 9.82054L76.4174 14.4685C76.2589 14.5937 76.1913 14.8018 76.2459 14.9962L78.2754 22.2159C78.401 22.6628 77.9028 23.0248 77.5166 22.7672L71.2774 18.606C71.1094 18.494 70.8906 18.494 70.7226 18.606L64.4834 22.7672C64.0972 23.0248 63.599 22.6628 63.7246 22.2159L65.7541 14.9962C65.8087 14.8018 65.7411 14.5937 65.5826 14.4685L59.6971 9.82054C59.3328 9.53284 59.5231 8.94717 59.9869 8.92855L67.4804 8.6277C67.6822 8.6196 67.8593 8.49094 67.9293 8.30156L70.5311 1.26779Z" fill="#FFB400"/>
<path d="M99.5311 1.26779C99.6921 0.832402 100.308 0.832402 100.469 1.26779L103.071 8.30156C103.141 8.49094 103.318 8.6196 103.52 8.6277L111.013 8.92855C111.477 8.94717 111.667 9.53284 111.303 9.82054L105.417 14.4685C105.259 14.5937 105.191 14.8018 105.246 14.9962L107.275 22.2159C107.401 22.6628 106.903 23.0248 106.517 22.7672L100.277 18.606C100.109 18.494 99.8906 18.494 99.7226 18.606L93.4834 22.7672C93.0972 23.0248 92.599 22.6628 92.7246 22.2159L94.7541 14.9962C94.8087 14.8018 94.7411 14.5937 94.5826 14.4685L88.6971 9.82054C88.3328 9.53284 88.5231 8.94717 88.9869 8.92855L96.4804 8.6277C96.6822 8.6196 96.8593 8.49094 96.9293 8.30156L99.5311 1.26779Z" fill="#FFB400"/>
<path d="M128.531 1.26779C128.692 0.832402 129.308 0.832402 129.469 1.26779L132.071 8.30156C132.141 8.49094 132.318 8.6196 132.52 8.6277L140.013 8.92855C140.477 8.94717 140.667 9.53284 140.303 9.82054L134.417 14.4685C134.259 14.5937 134.191 14.8018 134.246 14.9962L136.275 22.2159C136.401 22.6628 135.903 23.0248 135.517 22.7672L129.277 18.606C129.109 18.494 128.891 18.494 128.723 18.606L122.483 22.7672C122.097 23.0248 121.599 22.6628 121.725 22.2159L123.754 14.9962C123.809 14.8018 123.741 14.5937 123.583 14.4685L117.697 9.82054C117.333 9.53284 117.523 8.94717 117.987 8.92855L125.48 8.6277C125.682 8.6196 125.859 8.49094 125.929 8.30156L128.531 1.26779Z" fill="#FFB400"/>
</svg>
