<svg width="20" height="21" viewBox="0 0 20 21" fill="none" xmlns="http://www.w3.org/2000/svg">
<path d="M19.9999 15.4201V18.4201C20.0011 18.6986 19.944 18.9743 19.8324 19.2294C19.7209 19.4846 19.5572 19.7137 19.352 19.902C19.1468 20.0902 18.9045 20.2336 18.6407 20.3228C18.3769 20.412 18.0973 20.4452 17.8199 20.4201C14.7428 20.0857 11.7869 19.0342 9.18993 17.3501C6.77376 15.8148 4.72527 13.7663 3.18993 11.3501C1.49991 8.7413 0.448176 5.77109 0.119933 2.6801C0.0949436 2.40356 0.127808 2.12486 0.216434 1.86172C0.305059 1.59859 0.447504 1.35679 0.634699 1.15172C0.821894 0.94665 1.04974 0.782806 1.30372 0.670619C1.55771 0.558432 1.83227 0.500358 2.10993 0.500097H5.10993C5.59524 0.495321 6.06572 0.667176 6.43369 0.98363C6.80166 1.30008 7.04201 1.73954 7.10993 2.2201C7.23656 3.18016 7.47138 4.12282 7.80993 5.0301C7.94448 5.38802 7.9736 5.77701 7.89384 6.15098C7.81408 6.52494 7.6288 6.86821 7.35993 7.1401L6.08993 8.4101C7.51349 10.9136 9.58639 12.9865 12.0899 14.4101L13.3599 13.1401C13.6318 12.8712 13.9751 12.6859 14.3491 12.6062C14.723 12.5264 15.112 12.5556 15.4699 12.6901C16.3772 13.0286 17.3199 13.2635 18.2799 13.3901C18.7657 13.4586 19.2093 13.7033 19.5265 14.0776C19.8436 14.4519 20.0121 14.9297 19.9999 15.4201Z" fill="#666666"/>
</svg>
